<svg id="share" viewBox="0 0 24 24" width="16" height="16" xmlns="http://www.w3.org/2000/svg"><path d="m0 0h14.1016v20.9082h-14.1016z" opacity="0"/><g fill="#000" fill-opacity=".85"><path d="m13.7402 8.62305v7.50975c0 1.6406-.8203 2.461-2.4902 2.461h-8.75977c-1.660152 0-2.49023-.8204-2.49023-2.461v-7.50975c0-1.64063.830078-2.46094 2.49023-2.46094h2.13868v1.41602l-2.11914-.00001c-.70313 0-1.10352.38086-1.10352 1.11329v7.37309c0 .7421.40039 1.1132 1.10352 1.1132h8.72073c.6933 0 1.1035-.3711 1.1035-1.1132v-7.37309c0-.73243-.4102-1.11329-1.1035-1.11329l-2.12894.00001v-1.41602h2.14844c1.6699 0 2.4902.82031 2.4902 2.46094z"/><path d="m6.86523 12.5391c.38086 0 .70313-.3125.70313-.6836v-7.61722l-.05859-1.17187.41015.44921 1.07422 1.16211c.12695.13672.30274.20508.46875.20508.37109 0 .64451-.2539.64451-.60547 0-.19531-.0781-.33203-.21482-.45898l-2.51953-2.41211c-.17578-.17578-.32227-.23437-.50782-.23437-.17578 0-.32226.05859-.50781.23437l-2.51953 2.41211c-.12695.12695-.20508.26367-.20508.45898 0 .35157.26367.60547.63477.60547.16601 0 .35156-.06836.47851-.20508l1.07422-1.16211.41016-.44921-.05859 1.17187v7.61722c0 .3711.32226.6836.69335.6836z"/></g></svg>